<svg xmlns="http://www.w3.org/2000/svg" viewBox="0 0 648 468"><defs><style>.cls-1{font-size:53px;fill:#231f20;font-family:SweetLillyRegular, Sweet Lilly;letter-spacing:0.04em;}.cls-2{fill:#fff;}.cls-3,.cls-4,.cls-5{fill:none;stroke:#231f20;stroke-miterlimit:10;}.cls-3{stroke-width:0.67px;}.cls-4{stroke-width:2.04px;}.cls-5{stroke-width:2px;}</style></defs><title>Artboard 1</title><g id="RedRock"><text class="cls-1" transform="translate(40.38 91.25)">Book Your next adventure</text></g><g id="Layer_2" data-name="Layer 2"><rect class="cls-2" x="515.37" y="36.71" width="92.57" height="92.57"/><path class="cls-3" d="M513.48,109.22v2.17c2.08,0,3.76,1,3.76,2.17s-1.68,2.17-3.76,2.17v2c2.08,0,3.76,1,3.76,2.17s-1.68,2.17-3.76,2.17"/><path class="cls-3" d="M513.48,96.11v2.17c2.08,0,3.76,1,3.76,2.17s-1.68,2.17-3.76,2.17v2c2.08,0,3.76,1,3.76,2.17s-1.68,2.17-3.76,2.17"/><path class="cls-3" d="M513.48,83v2.17c2.08,0,3.76,1,3.76,2.17s-1.68,2.17-3.76,2.17v2c2.08,0,3.76,1,3.76,2.17s-1.68,2.17-3.76,2.17"/><path class="cls-3" d="M513.48,69.88v2.17c2.08,0,3.76,1,3.76,2.17s-1.68,2.17-3.76,2.17v2c2.08,0,3.76,1,3.76,2.17s-1.68,2.17-3.76,2.17"/><path class="cls-3" d="M513.48,56.77v2.17c2.08,0,3.76,1,3.76,2.17s-1.68,2.17-3.76,2.17v2c2.08,0,3.76,1,3.76,2.17s-1.68,2.17-3.76,2.17"/><path class="cls-3" d="M513.48,43.66v2.17c2.08,0,3.76,1,3.76,2.17s-1.68,2.17-3.76,2.17v2c2.08,0,3.76,1,3.76,2.17s-1.68,2.17-3.76,2.17"/><path class="cls-3" d="M522.31,34.83H520c0,2.08-1,3.76-2.3,3.76h-.12s0,0,0,0l0-.06-.16-.22a6.4,6.4,0,0,0-.75-.81c-.7-.68-2-1.62-3-2.66h-.1v3.72a7.14,7.14,0,0,1,1.46.35,4.65,4.65,0,0,1,1.2.5,2,2,0,0,1,1.1,1.62c0,1.27-1.68,2.3-3.76,2.3"/><path class="cls-3" d="M535.43,34.83h-2.17c0,2.08-1,3.76-2.17,3.76s-2.17-1.69-2.17-3.76h-2c0,2.08-1,3.76-2.17,3.76s-2.17-1.69-2.17-3.76"/><path class="cls-3" d="M548.54,34.83h-2.17c0,2.08-1,3.76-2.17,3.76S542,36.91,542,34.83h-2c0,2.08-1,3.76-2.17,3.76s-2.17-1.69-2.17-3.76"/><path class="cls-3" d="M561.65,34.83h-2.17c0,2.08-1,3.76-2.17,3.76s-2.17-1.69-2.17-3.76h-2c0,2.08-1,3.76-2.17,3.76s-2.17-1.69-2.17-3.76"/><path class="cls-3" d="M574.77,34.83H572.6c0,2.08-1,3.76-2.17,3.76s-2.17-1.69-2.17-3.76h-2c0,2.08-1,3.76-2.17,3.76S562,36.91,562,34.83"/><path class="cls-3" d="M587.88,34.83h-2.17c0,2.08-1,3.76-2.17,3.76s-2.17-1.69-2.17-3.76h-2c0,2.08-1,3.76-2.17,3.76s-2.17-1.69-2.17-3.76"/><path class="cls-3" d="M601,34.83h-2.17c0,2.08-1,3.76-2.17,3.76s-2.17-1.69-2.17-3.76h-2c0,2.08-1,3.76-2.17,3.76s-2.17-1.69-2.17-3.76"/><path class="cls-3" d="M609.82,43.66v-2.3c-2.08,0-3.76-1-3.76-2.3v-.12s0,0,0,0l.06,0,.22-.16a6.41,6.41,0,0,0,.81-.75c.68-.7,1.62-2,2.66-3v-.1h-3.72a7.14,7.14,0,0,1-.35,1.46,4.64,4.64,0,0,1-.5,1.2,2,2,0,0,1-1.62,1.1c-1.27,0-2.3-1.69-2.3-3.76"/><path class="cls-3" d="M609.82,56.77V54.6c-2.08,0-3.76-1-3.76-2.17s1.68-2.17,3.76-2.17v-2c-2.08,0-3.76-1-3.76-2.17S607.74,44,609.82,44"/><path class="cls-3" d="M609.82,69.88V67.72c-2.08,0-3.76-1-3.76-2.17s1.68-2.17,3.76-2.17v-2c-2.08,0-3.76-1-3.76-2.17s1.68-2.17,3.76-2.17"/><path class="cls-3" d="M609.82,83V80.83c-2.08,0-3.76-1-3.76-2.17s1.68-2.17,3.76-2.17v-2c-2.08,0-3.76-1-3.76-2.17s1.68-2.17,3.76-2.17"/><path class="cls-3" d="M609.82,96.11V93.94c-2.08,0-3.76-1-3.76-2.17s1.68-2.17,3.76-2.17v-2c-2.08,0-3.76-1-3.76-2.17s1.68-2.17,3.76-2.17"/><path class="cls-3" d="M609.82,109.22v-2.17c-2.08,0-3.76-1-3.76-2.17s1.68-2.17,3.76-2.17v-2c-2.08,0-3.76-1-3.76-2.17s1.68-2.17,3.76-2.17"/><path class="cls-3" d="M609.82,122.34v-2.17c-2.08,0-3.76-1-3.76-2.17s1.68-2.17,3.76-2.17v-2c-2.08,0-3.76-1-3.76-2.17s1.68-2.17,3.76-2.17"/><path class="cls-3" d="M601,131.16h2.3c0-2.08,1-3.76,2.3-3.76h.12s0,0,0,0l0,.06.16.22a6.41,6.41,0,0,0,.75.81c.7.68,2,1.62,3,2.66h.1v-3.72a7.14,7.14,0,0,1-1.46-.35,4.64,4.64,0,0,1-1.2-.5,2,2,0,0,1-1.1-1.62c0-1.27,1.68-2.3,3.76-2.3"/><path class="cls-3" d="M587.88,131.16H590c0-2.08,1-3.76,2.17-3.76s2.17,1.69,2.17,3.76h2c0-2.08,1-3.76,2.17-3.76s2.17,1.69,2.17,3.76"/><path class="cls-3" d="M574.77,131.16h2.17c0-2.08,1-3.76,2.17-3.76s2.17,1.69,2.17,3.76h2c0-2.08,1-3.76,2.17-3.76s2.17,1.69,2.17,3.76"/><path class="cls-3" d="M561.65,131.16h2.17c0-2.08,1-3.76,2.17-3.76s2.17,1.69,2.17,3.76h2c0-2.08,1-3.76,2.17-3.76s2.17,1.69,2.17,3.76"/><path class="cls-3" d="M548.54,131.16h2.17c0-2.08,1-3.76,2.17-3.76s2.17,1.69,2.17,3.76h2c0-2.08,1-3.76,2.17-3.76s2.17,1.69,2.17,3.76"/><path class="cls-3" d="M535.43,131.16h2.17c0-2.08,1-3.76,2.17-3.76s2.17,1.69,2.17,3.76h2c0-2.08,1-3.76,2.17-3.76s2.17,1.69,2.17,3.76"/><path class="cls-3" d="M522.31,131.16h2.17c0-2.08,1-3.76,2.17-3.76s2.17,1.69,2.17,3.76h2c0-2.08,1-3.76,2.17-3.76s2.17,1.69,2.17,3.76"/><path class="cls-3" d="M513.48,122.34v2.3c2.08,0,3.76,1,3.76,2.3v.12s0,0,0,0l-.06,0-.22.16a6.4,6.4,0,0,0-.81.75c-.68.7-1.62,2-2.66,3v.1h3.72a7.15,7.15,0,0,1,.35-1.46,4.64,4.64,0,0,1,.5-1.2,2,2,0,0,1,1.62-1.1c1.27,0,2.3,1.69,2.3,3.76"/><rect class="cls-4" x="18" y="18.04" width="612" height="431.92"/><line class="cls-5" x1="378" y1="121.93" x2="378" y2="405.93"/></g></svg>